<svg height="512" viewBox="0 0 56 58" width="512" xmlns="http://www.w3.org/2000/svg"><g id="009---Sauces" fill="none"><path id="Shape" d="m17 14-1.8-10-1.2-2-1.2 2-1.8 10 3 2z" fill="#e64c3c"/><path id="Shape" d="m8 17c-4.418278 0-8-3.581722-8-8v-1c0-4.418278 3.581722-8 8-8h3c.5522847 0 1 .44771525 1 1s-.4477153 1-1 1h-3c-3.3137085 0-6 2.6862915-6 6v1c0 3.3137085 2.6862915 6 6 6 .55228475 0 1 .4477153 1 1s-.44771525 1-1 1z" fill="#f29c1f"/><g fill="#c03a2b"><path id="Shape" d="m10 14h9c1.1045695 0 2 .8954305 2 2v6h-13v-6c0-1.1045695.8954305-2 2-2z"/><rect id="Rectangle-path" height="4" rx="1" width="6" x="11"/><path id="Shape" d="m24 46v10c0 1.1045695-.8954305 2-2 2h-15c-1.1045695 0-2-.8954305-2-2v-10z"/><path id="Shape" d="m24 22v11h-19v-11c0-1.1045695.8954305-2 2-2h15c1.1045695 0 2 .8954305 2 2z"/></g><path id="Shape" d="m22 46v10c.1004806.9841384-.599328 1.8699722-1.58 2h-11.84c-.980672-.1300278-1.68048065-1.0158616-1.58-2v-10z" fill="#e64c3c"/><path id="Shape" d="m22 22v11h-15v-11c-.10048065-.9841384.599328-1.8699722 1.58-2h11.84c.980672.1300278 1.6804806 1.0158616 1.58 2z" fill="#e64c3c"/><path id="Rectangle-path" d="m5 33h19v13h-19z" fill="#f9eab0"/><path id="Rectangle-path" d="m7 33h15v13h-15z" fill="#f5efca"/><path id="Shape" d="m11 25h-2c-.55228475 0-1-.4477153-1-1s.44771525-1 1-1h2c.5522847 0 1 .4477153 1 1s-.4477153 1-1 1z" fill="#fb7b76"/><path id="Shape" d="m20 25h-5c-.5522847 0-1-.4477153-1-1s.4477153-1 1-1h5c.5522847 0 1 .4477153 1 1s-.4477153 1-1 1z" fill="#fb7b76"/><path id="Shape" d="m54.83 22.06c-.548465 1.2778399-.8112538 2.6600407-.77 4.05l.85 28.8c.0243448.8111261-.2809454 1.5975154-.8462148 2.1797429s-1.3422939.9106224-2.1537852.9102571h-17.82c-.8114913.0003653-1.5885158-.3280296-2.1537852-.9102571s-.8705596-1.3686168-.8462148-2.1797429l.85-28.8c.0448476-1.3902419-.2180882-2.7732161-.77-4.05-1.3428281-3.133112-.908019-6.7450787 1.14-9.47l2.69-3.59 8-3 8 3 2.69 3.59c2.0400949 2.7281006 2.4743759 6.3356801 1.14 9.47z" fill="#f0c419"/><path id="Shape" d="m52.39 22.06c-.4396752 1.3036824-.6461662 2.6746477-.61 4.05l.67 28.8c0 1.69-1 3.09-2.38 3.09h-14.14c-1.34 0-2.42-1.4-2.38-3.09l.67-28.8c.0434948-1.3757946-.1631912-2.7480536-.61-4.05-1.0611442-3.1409283-.7338119-6.5851922.9-9.47l2.14-3.59h12.7l2.14 3.59c1.6215183 2.8886657 1.9483441 6.3275987.9 9.47z" fill="#f3d55b"/><path id="Shape" d="m49.62 45c-4.4133333.1333333-8.8266667.1333333-13.24 0-.5522847 0-1-.4477153-1-1l.62-18c0-.5522847.4477153-1 1-1 4 .1066667 8 .1066667 12 0 .5522847 0 1 .4477153 1 1l.57 18c.0006671.5333335-.4173332.9733337-.95 1z" fill="#f5efca"/><path id="Shape" d="m35.18 21c-.4098038.0003967-.7783727-.249279-.93-.63-1.0676037-2.5299003-.3194506-5.4611889 1.83-7.17.4418278-.3313708 1.0686292-.2418278 1.4.2s.2418278 1.0686292-.2 1.4c-1.4294501 1.1651753-1.9077855 3.1398422-1.17 4.83.1227404.3081879.08466.657184-.101656.9316496-.186316.2744655-.4966139.4386717-.828344.4383504z" fill="#f5efca"/><path id="Shape" d="m37 55h-2c-.5522847 0-1-.4477153-1-1s.4477153-1 1-1h2c.5522847 0 1 .4477153 1 1s-.4477153 1-1 1z" fill="#f5efca"/><path id="Shape" d="m51 55h-10c-.5522847 0-1-.4477153-1-1s.4477153-1 1-1h10c.5522847 0 1 .4477153 1 1s-.4477153 1-1 1z" fill="#f5efca"/><path id="Shape" d="m52 2v6c0 .55228475-.4477153 1-1 1h-16c-.5522847 0-1-.44771525-1-1v-6c0-1.1045695.8954305-2 2-2h14c1.1045695 0 2 .8954305 2 2z" fill="#95a5a5"/><path id="Shape" d="m52 2v2h-18v-2c0-1.1045695.8954305-2 2-2h14c1.1045695 0 2 .8954305 2 2z" fill="#bdc3c7"/></g></svg>